<svg width="16" height="16" viewBox="0 0 16 16" fill="none" xmlns="http://www.w3.org/2000/svg">
<path d="M14.5647 15.875C12.7468 15.725 10.9994 15.2452 9.32245 14.4356C7.64554 13.6259 6.12728 12.5397 4.76768 11.1769C3.40806 9.8141 2.33178 8.3 1.53883 6.63464C0.745877 4.96925 0.266069 3.22759 0.099402 1.40966C0.0660686 1.05691 0.168452 0.750454 0.406552 0.490288C0.644652 0.230121 0.942269 0.100037 1.2994 0.100037H3.9109C4.21347 0.100037 4.47373 0.190745 4.69168 0.372162C4.90963 0.553578 5.06154 0.790438 5.14743 1.08274L5.6705 3.17501C5.71025 3.3981 5.69775 3.61605 5.633 3.82886C5.56827 4.04168 5.46282 4.21475 5.31665 4.34809L3.00705 6.59616C3.37885 7.2936 3.79104 7.95 4.2436 8.56539C4.69617 9.18079 5.19206 9.7563 5.73128 10.2919C6.26386 10.8243 6.83913 11.3173 7.45708 11.7712C8.07503 12.225 8.74234 12.6379 9.459 13.0096L11.8282 10.6962C11.968 10.55 12.1282 10.4526 12.309 10.4039C12.4898 10.3552 12.6917 10.3475 12.9148 10.3808L14.9167 10.8212C15.2192 10.9045 15.4586 11.0584 15.6349 11.2827C15.8112 11.5071 15.8994 11.7738 15.8994 12.0827V14.675C15.8994 15.0321 15.7651 15.3297 15.4966 15.5678C15.2281 15.8059 14.9175 15.9083 14.5647 15.875ZM2.42245 5.32696L4.30708 3.51926C4.33913 3.49361 4.35996 3.45835 4.36958 3.41349C4.37919 3.3686 4.37759 3.32694 4.36478 3.28849L3.92615 1.55386C3.91334 1.50258 3.8909 1.46412 3.85885 1.43849C3.82679 1.41284 3.78511 1.40001 3.73383 1.40001H1.57438C1.53593 1.40001 1.50388 1.41284 1.47823 1.43849C1.45258 1.46412 1.43975 1.49617 1.43975 1.53464C1.49104 2.16797 1.60289 2.7997 1.77533 3.42984C1.94778 4.05997 2.16349 4.69235 2.42245 5.32696ZM10.7724 13.6192C11.3703 13.8823 11.9954 14.082 12.6477 14.2184C13.3001 14.3549 13.9058 14.4551 14.4648 14.5192C14.5032 14.5192 14.5353 14.5064 14.5609 14.4808C14.5866 14.4551 14.5994 14.4231 14.5994 14.3846V12.2308C14.5994 12.1795 14.5866 12.1378 14.5609 12.1058C14.5353 12.0737 14.4968 12.0513 14.4455 12.0385L12.8205 11.6865C12.7821 11.6737 12.7484 11.6721 12.7196 11.6817C12.6907 11.6914 12.6603 11.7122 12.6282 11.7442L10.7724 13.6192Z" fill="#3B3B47"/>
</svg>
