<svg width="20" height="19" viewBox="0 0 20 19" fill="none" xmlns="http://www.w3.org/2000/svg">
<path d="M9.9989 0.796204L18.4224 5.59493C18.6336 5.72524 18.7992 5.88367 18.9191 6.0702C19.0389 6.25674 19.0989 6.475 19.0989 6.725V17.2923C19.0989 17.7424 18.9435 18.1229 18.6326 18.4337C18.3218 18.7446 17.9413 18.9 17.4912 18.9H2.50663C2.05649 18.9 1.67601 18.7446 1.36518 18.4337C1.05434 18.1229 0.898926 17.7424 0.898926 17.2923V6.725C0.898926 6.475 0.958867 6.25674 1.07875 6.0702C1.19862 5.88367 1.36416 5.72524 1.57538 5.59493L9.9989 0.796204ZM9.9989 11.275L17.7989 6.8L9.9989 2.325L2.1989 6.8L9.9989 11.275ZM9.9989 12.8038L2.1989 8.37303V17.2923C2.1989 17.382 2.22775 17.4558 2.28545 17.5135C2.34315 17.5712 2.41688 17.6 2.50663 17.6H17.4912C17.5809 17.6 17.6547 17.5712 17.7124 17.5135C17.7701 17.4558 17.7989 17.382 17.7989 17.2923V8.37303L9.9989 12.8038Z" fill="#3B3B47"/>
</svg>
