<svg width="294" height="294" viewBox="0 0 294 294" fill="none" xmlns="http://www.w3.org/2000/svg">
<mask id="mask0_1076_2415" style="mask-type:luminance" maskUnits="userSpaceOnUse" x="0" y="0" width="294" height="294">
<path d="M294 0H0V294H294V0Z" fill="white"/>
</mask>
<g mask="url(#mask0_1076_2415)">
<path d="M1058.9 -170.8H-470V504.5H1058.9V-170.8Z" fill="url(#paint0_linear_1076_2415)"/>
<path d="M1046.9 -185.9H-453.8V517.2H1046.9V-185.9Z" fill="url(#paint1_linear_1076_2415)"/>
<g opacity="0.8">
<path d="M-166.1 516.9L-414 -185.9H-56.9L119.4 516.8L-166.1 516.9Z" fill="url(#paint2_linear_1076_2415)"/>
</g>
<path d="M455.4 517.4L211 519.8L316.1 -186L611.9 -185.9L455.4 517.4Z" fill="url(#paint3_linear_1076_2415)"/>
<path opacity="0.7" d="M-446.5 -185.9L120.8 516L390.1 516.9L-180.9 -186L-446.5 -185.9Z" fill="url(#paint4_linear_1076_2415)"/>
<path d="M333.1 -185.9H-46.2998L435.8 516L803.8 517.2L333.1 -185.9Z" fill="url(#paint5_linear_1076_2415)"/>
<path d="M397 516.9H152.7L-37.8999 -185.9H237.9L397 516.9Z" fill="url(#paint6_linear_1076_2415)"/>
<path d="M14.9 -186L-234.4 -185.5L-583 517.3L-310.5 516.9L14.9 -186Z" fill="url(#paint7_linear_1076_2415)"/>
<path d="M374.4 35.4H167.2V225.8H374.4V35.4Z" fill="#EEEEEE" stroke="#3A3A3A" stroke-width="3.3123" stroke-miterlimit="10"/>
<path d="M311.8 93.5H229.7V166.7H311.8V93.5Z" fill="#B4BDC9"/>
<path d="M311.8 161.3H229.7V166.8H311.8V161.3Z" fill="#5F6061"/>
<path d="M311.8 137.3H229.7V160.9H311.8V137.3Z" fill="url(#paint8_linear_1076_2415)"/>
<path d="M311.8 158.3H229.7V162.9H311.8V158.3Z" fill="#474743"/>
<path d="M311.8 154.1H229.7V156.4H311.8V154.1Z" fill="#474743"/>
<path d="M311.8 141.8H229.7V143.3H311.8V141.8Z" fill="#737373"/>
<path d="M311.8 128.1H229.7V128.5H311.8V128.1Z" fill="#AAAAAA"/>
<g opacity="0.2">
<path d="M252.8 36.6V114.3L168.3 132.4V36.6H252.8Z" fill="url(#paint9_linear_1076_2415)"/>
<path d="M291.6 36.6H257.9V113.2L291.6 105.9V36.6Z" fill="url(#paint10_linear_1076_2415)"/>
</g>
<path d="M186.3 320.1H149.1L140.1 285.6H177.3L186.3 320.1Z" fill="url(#paint11_linear_1076_2415)"/>
<path d="M235.1 208.9C235.3 205.6 232.7 202.8 229.3 202.8H99C95.7 202.8 92.8 205.5 92.7 208.9L89 285.9H231.5L235.1 208.9Z" fill="#303030"/>
<path d="M88.9001 285.9L88.5001 293.7C88.3001 297 90.9001 299.8 94.3001 299.8H224.7C228 299.8 230.9 297.1 231.1 293.7L231.5 285.9H88.9001Z" fill="#A0A0A0"/>
<path d="M228.5 209.7H99.1003L95.8003 280H225.1L228.5 209.7Z" fill="#0F0F0F"/>
<path d="M160.5 292.9C160.5 291.4 159.3 290.1 157.7 290.1C156.1 290.1 154.9 291.3 154.9 292.9C154.9 294.4 156.1 295.7 157.7 295.7C159.3 295.7 160.5 294.4 160.5 292.9Z" fill="#303030"/>
<path d="M145.3 280.2H95.3003L99.8003 209.3H177.2L145.3 280.2Z" fill="url(#paint12_linear_1076_2415)"/>
<path d="M105.7 49.1C111.9 47.4 117.1 44.5 120.7 42C124.3 39.5 126.3 37.4 126.3 37.4C118.3 39.7 112.2 43.5 108.5 46.2C115.4 40.7 120.8 34.5 124.5 29.5C128.2 24.6 130.1 21 130.1 21C118.9 29.6 112.3 37.7 108.8 42.8C113 34.5 113.1 27 113.1 27C105.9 37 105.3 44.9 105.3 47.5C104.7 48.2 103.9 49 103.1 50C99.8998 53.6 95.3998 58.7 90.0998 65C94.7998 58 98.3998 49.2 100.7 42.2C103 35.2 104.1 29.9 104.1 29.9C95.1998 41.8 90.2998 51.8 87.7998 59C85.1998 66.2 84.8998 70.5 84.8998 71.3C80.9998 76 76.8998 81.3 72.6998 86.8C71.4998 88.4 70.2998 90 69.1998 91.6C74.9998 81 79.1998 69.8 81.9998 61.3C84.7998 52.8 86.0998 46.8 86.0998 46.8C73.3998 61.8 67.8998 73.6 65.8998 81.9C64.8998 86 64.6998 89.3 64.8998 91.7C64.9998 94.1 65.4998 95.7 65.7998 96.4C65.0998 97.4 64.3998 98.4 63.6998 99.5C60.6998 103.9 57.7998 108.4 55.0998 113C53.9998 114.9 52.7998 116.9 51.7998 118.8C53.7998 112.3 55.0998 106.2 55.8998 100.6C56.2998 97.8 56.5998 95.2 56.7998 92.8C56.9998 90.3 57.0998 88.1 57.0998 86C57.1998 77.7 56.0998 72.5 56.0998 72.5C52.0998 81.8 49.5998 89.7 48.0998 96.2C46.5998 102.7 45.9998 107.8 45.9998 111.8C45.8998 115.8 46.3998 118.6 46.9998 120.7C47.5998 122.7 48.2998 124 48.7998 124.7C48.3998 125.5 47.9998 126.3 47.4998 127.1C46.3998 129.4 45.1998 131.8 44.1998 134.1C43.1998 136.4 42.1998 138.8 41.2998 141.1C40.8998 142.2 40.4998 143.3 39.9998 144.4C40.9998 137.9 41.1998 131.5 40.9998 125.6C40.8998 122.6 40.6998 119.8 40.4998 117.1C40.2998 114.4 39.8998 111.8 39.5998 109.5C39.1998 107.1 38.8998 105 38.4998 103C38.0998 101.1 37.6998 99.4 37.3998 98C36.6998 95.2 36.1998 93.6 36.1998 93.6C33.4998 102.7 32.0998 110.9 31.5998 117.8C31.2998 121.3 31.2998 124.5 31.2998 127.4C31.3998 130.3 31.6998 133 31.9998 135.4C32.3998 137.8 32.7998 139.9 33.1998 141.8C33.6998 143.7 34.1998 145.3 34.6998 146.7C35.6998 149.5 36.6998 151.4 37.3998 152.6C37.1998 153.2 36.9998 153.9 36.7998 154.5C35.4998 158.8 34.3998 162.9 33.6998 166.8C33.5998 167.3 33.4998 167.8 33.3998 168.2C32.9998 165.7 32.2998 163.1 31.4998 160.4C30.7998 157.7 29.7998 155 28.8998 152.3C27.9998 149.6 26.9998 146.8 25.9998 144.2C24.9998 141.5 23.9998 138.9 23.0998 136.5C21.1998 131.6 19.5998 127.3 18.3998 124.1C17.1998 121 16.3998 119.1 16.3998 119.1C15.0998 129 15.4998 137.3 16.5998 144C17.1998 147.4 17.9998 150.3 18.8998 152.9C19.7998 155.5 20.7998 157.8 21.7998 159.7C26.0998 167.5 30.6998 170.5 32.7998 171.7C31.8998 177.2 31.4998 181.9 31.2998 185.4C31.0998 187.7 31.1998 189.5 31.0998 190.7C31.0998 191.3 31.0998 191.8 31.0998 192.1C31.0998 192.4 30.3998 276.6 30.3998 276.6C30.6998 277.1 32.4998 276.8 32.5998 276.5C32.5998 276.5 33.2998 192.3 33.3998 192C33.3998 191.7 33.3998 191.2 33.4998 190.6C33.5998 189.4 33.4998 187.6 33.6998 185.4C33.7998 183.9 33.9998 182.1 34.0998 180.2C34.2998 178.2 34.5998 176.1 34.8998 173.8C35.8998 173.2 37.5998 171.9 39.9998 169.8C42.4998 167.7 45.4998 164.9 49.3998 161.1C51.1998 159.2 53.3998 157.2 55.5998 154.9C57.8998 152.6 60.2998 150.1 62.9998 147.3C68.2998 141.8 74.5998 135.4 81.8998 127.8C81.8998 127.8 79.7998 128.4 76.4998 129.9C74.7998 130.6 72.7998 131.5 70.5998 132.7C68.3998 133.8 65.8998 135.2 63.3998 136.8C58.2998 140 52.6998 144.3 47.6998 149.8C42.6998 155.2 38.1998 161.9 35.4998 169.4C35.5998 168.6 35.7998 167.9 35.8998 167.1C36.5998 163.3 37.5998 159.3 38.8998 155C39.5998 152.9 40.1998 150.7 40.9998 148.5C41.3998 147.4 41.7998 146.3 42.1998 145.1C42.5998 144 43.0998 142.8 43.4998 141.7C43.7998 141 44.0998 140.3 44.2998 139.5C44.9998 139.3 46.6998 138.8 49.1998 137.7C50.4998 137.2 51.8998 136.5 53.4998 135.7C55.0998 134.9 56.8998 133.9 58.7998 132.8C66.4998 128.2 76.3998 121.2 87.7998 109.8C87.7998 109.8 85.7998 110.3 82.6998 111.4C79.5998 112.5 75.1998 114.1 70.5998 116.3C65.8998 118.5 60.8998 121.4 56.3998 124.8C51.9998 128.2 47.8998 132.2 45.3998 136.5C45.5998 135.9 45.8998 135.4 46.0998 134.9C47.0998 132.6 48.2998 130.3 49.3998 127.9C51.1998 124.3 53.0998 120.7 55.0998 117.1C55.6998 117 56.3998 116.9 57.1998 116.7C59.4998 116.1 62.7998 114.9 67.0998 112.6C71.3998 110.3 76.5998 106.9 82.8998 102C89.0998 97 96.3998 90.4 104.9 81.6C104.9 81.6 102.8 82.3 99.2998 83.7C95.7998 85.1 90.9998 87.2 85.6998 90.1C80.2998 93 74.3998 96.7 68.7998 101.2C65.2998 104 61.9998 107.1 58.8998 110.6C60.8998 107.2 63.0998 103.9 65.2998 100.7C66.3998 99.1 67.3998 97.6 68.4998 96C69.5998 94.5 70.5998 93 71.6998 91.4C72.7998 91.4 77.2998 91.2 84.5998 87.3C91.8998 83.5 102 76.2 115.1 61.8C115.1 61.8 108.2 64.9 99.3998 69.9C90.5998 74.9 79.9998 82 72.5998 89.9C73.0998 89.2 73.5998 88.5 74.0998 87.9C79.9998 80 85.7998 72.7 90.9998 66.5C101.5 63.9 109.4 59 114.7 54.6C120 50.2 122.6 46.4 122.6 46.4C107.8 52.1 97.5998 59.9 93.0998 64C97.5998 58.6 101.4 54.2 104.2 51C104.7 50.1 105.2 49.6 105.7 49.1Z" fill="#375458"/>
<path d="M19.9999 151.2C19.8999 145.5 19.4999 138.6 18.2999 130.2C16.9999 121.7 15.0999 111.8 11.2999 99.8C11.2999 99.8 8.9999 108.7 7.9999 121.5C7.0999 134.2 7.49991 150.9 14.9999 166.9C14.4999 166.2 13.9999 165.5 13.4999 164.7C10.8999 161.2 8.39989 157.2 5.6999 153C2.9999 148.8 0.199905 144.3 -2.6001 139.7C-3.0001 139 -3.5001 138.2 -4.0001 137.5C-3.3001 136.2 -0.600098 131 0.499901 121.9C0.999901 117.3 1.19991 111.7 0.299904 105.1C-0.600098 98.5 -2.5001 90.8 -6.2001 82C-6.2001 82 -7.8001 90.4 -8.8001 101C-9.8001 111.6 -10.1001 124.5 -5.9001 134.4C-6.3001 133.8 -6.6001 133.3 -6.9001 132.7C-8.3001 130.3 -9.80009 127.9 -11.2001 125.4C-13.2001 122.1 -15.2001 118.7 -17.3001 115.3C-17.0001 114.8 -16.5001 114 -16.1001 112.9C-15.2001 110.7 -14.2001 107.3 -14.0001 102.3C-13.8001 97.3 -14.5001 90.7 -17.2001 82.3C-19.9001 73.9 -24.7001 63.4 -33.9001 51.2C-33.9001 51.2 -33.6001 53.6 -33.0001 57.5C-32.7001 59.5 -32.3001 61.8 -31.9001 64.5C-31.5001 67.1 -30.9001 70.1 -30.4001 73.3C-28.4001 84.2 -25.9001 97.3 -20.7001 109.9C-23.7001 105.2 -26.6001 100.4 -29.6001 95.8C-30.7001 94.1 -31.9001 92.3 -33.0001 90.6C-34.2001 88.9 -35.3001 87.2 -36.5001 85.6C-36.2001 85.1 -35.5001 83.9 -35.1001 81.7C-34.7001 79.5 -34.3001 76.4 -35.0001 72.2C-35.3001 70.1 -35.9001 67.7 -36.8001 65.1C-37.3001 63.8 -37.8001 62.4 -38.5001 60.9C-39.2001 59.4 -40.0001 57.9 -40.8001 56.3C-44.4001 49.8 -49.9001 42.1 -59.0001 33.8C-59.0001 33.8 -58.8001 34.3 -58.4001 35.1C-58.0001 36 -57.4001 37.2 -56.7001 38.8C-56.0001 40.4 -55.2001 42.3 -54.3001 44.4C-53.4001 46.5 -52.5001 48.9 -51.4001 51.4C-47.3001 61.5 -43.0001 73.9 -37.7001 84C-38.2001 83.3 -38.8001 82.5 -39.3001 81.8C-45.6001 72.9 -52.2001 65 -58.3001 58.3C-58.1001 47.7 -63.4001 38.6 -68.9001 32.7C-70.3001 31.2 -71.6001 29.9 -72.9001 28.8C-74.2001 27.7 -75.4001 26.8 -76.4001 26C-77.4001 25.3 -78.2001 24.7 -78.8001 24.3C-79.4001 24 -79.7001 23.8 -79.7001 23.8C-78.7001 25.7 -77.7001 27.5 -76.7001 29.3C-76.2001 30.2 -75.7001 31 -75.2001 31.9C-74.7001 32.8 -74.3001 33.6 -73.8001 34.4C-72.9001 36 -72.0001 37.6 -71.1001 39.1C-70.3001 40.6 -69.4001 42 -68.6001 43.4C-65.3001 48.8 -62.6001 53 -60.7001 55.7C-66.1001 50 -71.2001 45.6 -74.8001 42.4C-75.5001 41.8 -76.2001 41.3 -76.8001 40.8C-77.2001 39.3 -77.7001 37.7 -78.2001 36.3C-78.8001 34.8 -79.5001 33.5 -80.3001 32.2C-81.1001 30.9 -81.9001 29.7 -82.7001 28.6C-83.6001 27.5 -84.5001 26.5 -85.3001 25.6C-86.2001 24.7 -87.0001 23.9 -87.7001 23.2C-88.5001 22.5 -89.2001 21.9 -89.8001 21.5C-91.0001 20.6 -91.8001 20.1 -91.8001 20.1C-87.8001 27.8 -83.4001 34.1 -80.1001 37.8C-86.5001 30.6 -95.2001 25.3 -102.1 22.3C-103.8 21.5 -105.4 20.8 -106.9 20.3C-108.4 19.8 -109.6 19.4 -110.7 19C-112.8 18.3 -114.1 18 -114.1 18C-110.8 20.4 -107.6 22.4 -104.8 24.4C-103.4 25.4 -101.9 26.3 -100.6 27.2C-99.3001 28.1 -98.0001 29 -96.7001 29.8C-91.7001 33 -87.6001 35.5 -84.4001 37.3C-85.7001 36.7 -87.0001 36.2 -88.2001 35.8C-89.5001 35.4 -90.7001 35.1 -91.9001 34.8C-94.3001 34.2 -96.4001 33.8 -98.3001 33.7C-102 33.4 -104.4 33.5 -104.4 33.5C-101.2 35 -98.2001 36.1 -95.5001 37.1C-94.1001 37.6 -92.8001 38 -91.6001 38.4C-90.4001 38.8 -89.2001 39.1 -88.1001 39.4C-85.9001 40 -83.9001 40.3 -82.3001 40.6C-80.7001 40.9 -79.5001 41 -78.6001 41.1C-77.8001 41.8 -76.8001 42.6 -75.7001 43.5C-71.6001 47.1 -65.9001 52.3 -59.8001 59C-61.6001 57.4 -63.7001 55.9 -65.8001 54.5C-67.9001 53.1 -70.2001 51.8 -72.5001 50.6C-74.8001 49.4 -77.2001 48.4 -79.4001 47.4C-81.7001 46.5 -84.0001 45.7 -86.1001 45C-88.2001 44.3 -90.2001 43.8 -92.0001 43.4C-93.8001 43 -95.4001 42.6 -96.7001 42.4C-99.4001 41.9 -101 41.7 -101 41.7C-93.9001 45.5 -87.8001 49 -82.3001 52C-79.5001 53.5 -77.0001 54.9 -74.7001 56.1C-72.3001 57.3 -70.1001 58.5 -68.1001 59.5C-60.1001 63.5 -54.9001 65.4 -54.0001 65.7C-49.6001 70.8 -45.2001 76.6 -40.8001 82.7C-39.6001 84.4 -38.3001 86.2 -37.1001 88C-46.1001 77.8 -57.9001 69.9 -67.2001 65.3C-69.5001 64.1 -71.7001 63.2 -73.7001 62.3C-75.6001 61.5 -77.4001 60.8 -78.8001 60.3C-81.7001 59.3 -83.4001 58.8 -83.4001 58.8C-76.1001 65.5 -69.9001 71.1 -64.5001 75.7C-59.0001 80.3 -54.2001 83.8 -50.0001 86.3C-45.8001 88.9 -42.2001 90.6 -39.5001 91.6C-36.7001 92.6 -34.7001 93.1 -33.6001 93.2C-32.9001 94.3 -32.1001 95.5 -31.4001 96.6C-28.3001 101.4 -25.3001 106.4 -22.2001 111.4C-20.9001 113.5 -19.7001 115.6 -18.4001 117.6C-29.1001 106 -41.1001 99 -50.3001 95.3C-54.9001 93.4 -58.8001 92.3 -61.5001 91.6C-64.2001 90.9 -65.8001 90.8 -65.8001 90.8C-57.5001 97.3 -50.6001 102.9 -44.7001 107.4C-38.8001 111.9 -33.9001 115.2 -29.9001 117.6C-21.8001 122.4 -17.1001 123.5 -14.9001 123.6C-14.4001 124.5 -13.9001 125.3 -13.4001 126.2C-12.0001 128.7 -10.5001 131.1 -9.1001 133.5C-7.6001 135.9 -6.2001 138.3 -4.8001 140.6C-4.10011 141.7 -3.4001 142.8 -2.8001 143.9C-13.3001 132.8 -26.4001 125.3 -37.0001 121C-42.3001 118.8 -46.9001 117.4 -50.2001 116.6C-53.5001 115.7 -55.5001 115.4 -55.5001 115.4C-47.9001 121.8 -41.0001 127.3 -34.6001 132C-28.3001 136.6 -22.6001 140.3 -17.7001 143.2C-7.8001 148.9 -0.900101 151.3 2.1999 152.2C2.5999 152.8 2.9999 153.5 3.3999 154.1C6.0999 158.3 8.5999 162.4 11.1999 166C11.4999 166.5 11.7999 166.9 12.1999 167.4C2.1999 160.3 -12.0001 154.2 -23.8001 149.9C-29.7001 147.8 -34.9001 146.2 -38.7001 145.1C-42.5001 144 -44.8001 143.4 -44.8001 143.4C-36.7001 150.1 -29.3001 155.4 -22.6001 159.4C-15.9001 163.4 -10.0001 166 -4.9001 167.8C5.1999 171.2 11.7999 171 14.5999 170.7C18.2999 175.8 21.1999 175.6 17.9999 171.3C18.7999 168.8 20.1999 162.5 19.9999 151.2Z" fill="url(#paint13_linear_1076_2415)"/>
<path d="M207.8 86.1C211 85.3 212.6 82.6 217.6 82.6C207.7 81.2 197.9 85.3 188 85.3C189.6 83.9 191.3 83.9 192.9 82.6C183 85.3 171.5 88 160 88C166.6 86.6 171.5 83.9 178.1 82.6C173.2 82.6 168.2 81.2 163.3 82.6C151.8 88 141.9 92.1 128.8 94.8C133.7 89.4 143.6 88 148.5 82.6C127.1 86.7 117.3 103 99.1999 109.8C107.4 103 117.3 98.9 122.2 89.4C114 92.1 107.4 94.8 102.5 100.3C94.2999 111.2 87.6999 120.7 74.5999 126.1C77.8999 122 84.4999 119.3 86.0999 113.9C76.1999 119.3 69.6999 126.1 63.0999 134.3C63.1999 134.2 63.1999 134.2 63.2999 134.1C60.0999 137.7 55.2999 144.8 57.9999 145.2C61.4999 145.7 66.1999 146.2 71.8999 146.4C87.7999 146.4 104.2 145.1 120.6 142.4C104.2 132.9 82.7999 135.6 64.6999 138.3C69.5999 132.9 74.5999 124.7 81.0999 126.1C99.1999 128.8 117.3 131.5 135.3 127.5C120.5 120.7 99.0999 115.3 84.2999 123.4C89.6999 118.4 95.5999 113.4 101.9 109.2C116.7 115.9 133 114.6 149.3 115.3C154.3 115.2 159.8 115.1 165.8 114.7C148.1 103.8 122.2 98.4 102.6 108.8C111.4 103 120.9 98.9 130.4 98.9C145.2 98.9 164.9 108.4 183 105.7C166.6 100.3 150.1 92.1 132 96.2C151.7 85.3 168.2 93.5 186.2 100.3C191.1 101.7 194.4 98.9 197.7 98.9C187.8 93.5 174.7 92.1 163.2 89.4C169.8 89.4 176.3 88 181.3 89.4C189.5 90.8 196.1 94.8 206 94.8C199.4 92.1 192.8 89.4 186.3 88C189.6 88 194.5 88 197.9 88.2C201.6 87.8 205 87 207.8 86.1Z" fill="url(#paint14_linear_1076_2415)"/>
<path d="M26.0001 276.8L22.9001 276.6V276C24.3001 250.5 27.7001 190.7 12.6001 166.7L15.3001 165C30.9001 189.8 27.7001 248.1 26.1001 276.1L26.0001 276.8Z" fill="#054439"/>
<path d="M37.7001 277.8H34.6001C34.9001 235.8 35.2001 178.3 59.1001 140L61.8001 141.7C38.3001 179.1 38.0001 236.1 37.7001 277.8Z" fill="#054439"/>
<path d="M133.1 141.2C122.9 141.3 116.5 144.9 113.1 147.7C117.4 142.3 118.8 134.8 118.8 134.8C111.5 139.8 110 147.3 109.7 149.9C109.1 150.2 108.4 150.5 107.6 150.9C104.6 152.3 100.4 154.4 95.3998 157.2C99.9998 153.3 103.7 146.9 106.5 141.4C107.9 138.6 109 136.1 109.8 134.3C110.6 132.5 111 131.3 111 131.3C102 137.2 96.6998 144.1 93.8998 149.6C91.0998 155.1 90.4998 159.2 90.3998 160C88.5998 161.1 86.6998 162.3 84.7998 163.5C82.8998 164.8 80.8998 166 78.8998 167.4C77.7998 168.2 76.6998 169 75.4998 169.9C81.1998 163.3 85.5998 154.9 88.7998 148.2C91.9998 141.4 93.7998 136.2 93.7998 136.2C81.1998 143 75.3998 151.6 72.9998 158.4C71.7998 161.9 71.4998 164.9 71.4998 167.3C71.4998 169.7 71.8998 171.5 72.1998 172.4C71.4998 172.9 70.7998 173.5 70.0998 174C68.5998 175.1 67.1998 176.4 65.7998 177.6C64.2998 178.8 62.8998 180.1 61.5998 181.4C60.4998 182.5 59.2998 183.5 58.1998 184.7C62.3998 175.3 64.0998 165.1 64.6998 156.9C64.9998 152.9 65.0998 149.3 64.9998 146.8C64.9998 144.3 64.7998 142.9 64.7998 142.9C62.5998 146.3 60.6998 149.7 59.1998 152.7C57.6998 155.8 56.4998 158.6 55.5998 161.3C54.6998 164 53.9998 166.4 53.4998 168.6C53.0998 170.9 52.7998 172.9 52.6998 174.7C52.2998 182 53.9998 186.1 54.9998 187.9C54.4998 188.4 54.0998 188.9 53.6998 189.3C52.4998 190.7 51.2998 192.1 49.9998 193.5C48.8998 195 47.7998 196.4 46.6998 197.8C46.1998 198.5 45.6998 199.2 45.1998 199.8C46.6998 195 46.9998 189.6 47.0998 184.2C47.0998 181.5 47.0998 178.8 46.9998 176.2C46.8998 173.6 46.6998 170.9 46.4998 168.6C46.0998 163.8 45.4998 159.4 44.9998 156.3C44.4998 153.2 44.1998 151.4 44.1998 151.4C37.4998 166.1 36.1998 178.9 37.1998 187.7C37.5998 192.2 38.4998 195.7 39.2998 198.6C40.0998 201.5 40.9998 203.6 41.5998 204.9C41.2998 205.3 40.9998 205.7 40.7998 206.1C39.8998 207.5 39.0998 208.8 38.1998 210.1C37.3998 211.4 36.6998 212.7 36.0998 213.9C35.8998 214.2 35.7998 214.5 35.5998 214.9C35.2998 212.8 34.9998 210.5 34.3998 207.9C33.8998 205.4 33.2998 202.7 32.5998 200C31.8998 197.3 31.1998 194.5 30.4998 191.7C29.6998 189 28.7998 186.4 27.9998 183.9C26.3998 178.7 24.8998 174 23.8998 170.5C22.8998 167 22.2998 164.8 22.2998 164.8C21.0998 169.1 20.6998 172.9 20.3998 176.5C20.2998 177.4 20.2998 178.3 20.2998 179.1C20.2998 179.9 20.2998 180.7 20.3998 181.5C20.3998 182.3 20.4998 183.1 20.4998 183.8C20.4998 184.6 20.5998 185.4 20.5998 186.2C20.6998 187.8 20.7998 189.3 20.9998 190.7C21.1998 192.1 21.4998 193.6 21.6998 194.9C22.2998 197.6 22.9998 200 23.8998 202.2C25.5998 206.6 27.6998 209.8 29.5998 212.2C31.4998 214.6 33.2998 216.2 34.3998 217.1C34.1998 217.6 33.9998 218 33.7998 218.4C33.5998 218.8 33.4998 219.3 33.2998 219.7C32.9998 220.5 32.6998 221.4 32.3998 222.1C31.8998 223.6 31.5998 225 31.2998 226.2C31.0998 227 30.9998 227.7 30.9998 228.3C30.3998 233.7 31.3998 246.4 31.3998 246.2C31.3998 246 33.4998 230.5 33.4998 230.2C33.4998 229.8 33.5998 229.4 33.6998 228.8C33.7998 228.3 33.7998 227.6 33.9998 226.9C34.1998 225.9 34.4998 224.8 34.7998 223.5C35.1998 222.2 35.6998 220.9 36.2998 219.4C38.6998 219.4 44.6998 219 53.2998 218C54.3998 217.9 55.4998 217.7 56.5998 217.5C57.7998 217.3 58.9998 217.1 60.2998 216.9C62.6998 216.6 65.8998 215.5 68.6998 214.8C70.0998 214.4 71.5998 214.1 73.0998 213.6C74.5998 213.2 76.0998 212.9 77.5998 212.5C78.2998 212.3 79.0998 212.1 79.7998 211.9C80.5998 211.7 81.3998 211.5 82.1998 211.3C83.7998 210.9 85.3998 210.5 86.9998 210.1C86.9998 210.1 85.0998 209.3 81.8998 208.5C78.7998 207.6 74.2998 206.6 69.1998 206.3C67.8998 206.2 66.5998 206.1 65.1998 206.2C63.7998 206.3 62.4998 206.4 61.0998 206.5C59.6998 206.7 58.2998 206.8 56.7998 207.1C55.2998 207.4 53.8998 207.8 52.3998 208.2C46.7998 209.7 41.3998 212.3 37.4998 216.4C37.6998 215.9 37.8998 215.4 38.1998 214.9C38.7998 213.7 39.4998 212.5 40.1998 211.2C40.9998 210 41.7998 208.7 42.6998 207.3C43.5998 206 44.4998 204.7 45.4998 203.3C46.4998 201.9 47.4998 200.5 48.5998 199.1C48.8998 198.7 49.2998 198.2 49.5998 197.8C50.9998 198.3 56.8998 199.7 64.6998 200.4C72.4998 201.1 81.8998 201.1 91.8998 198.1C91.8998 198.1 90.0998 197.3 87.2998 196.3C84.4998 195.3 80.4998 194 76.0998 193.2C71.7998 192.4 66.8998 191.8 62.3998 192.2C61.2998 192.3 60.1998 192.4 59.0998 192.6C58.0998 192.8 56.9998 193.1 56.0998 193.4C54.1998 194 52.3998 194.8 50.9998 196C51.2998 195.7 51.4998 195.3 51.7998 195C52.8998 193.6 54.1998 192.3 55.2998 190.9C56.4998 189.5 57.7998 188.2 59.0998 186.9C60.3998 185.5 61.6998 184.2 62.9998 182.9C64.2998 181.6 65.6998 180.3 67.0998 179.1C68.4998 177.9 69.8998 176.7 71.2998 175.5C73.3998 173.9 75.3998 172.2 77.4998 170.7C78.4998 171.4 82.5998 174 89.0998 175C95.6998 176 104.4 175.6 116 170.4C116 170.4 114.6 170 112.2 169.4C109.8 168.9 106.5 168.2 102.6 167.7C94.9998 166.8 85.3998 166.9 78.3998 169.9C78.8998 169.6 79.2998 169.2 79.7998 168.9C85.4998 165 90.8998 161.5 95.6998 158.8C100.2 161 104.2 162.3 107.6 162.8C111 163.4 113.9 163.3 116.2 163C118.5 162.7 120.3 162 121.5 161.5C122.7 161 123.3 160.5 123.3 160.5C111 155.7 101.8 156.8 97.5998 157.7C99.6998 156.5 101.7 155.5 103.4 154.5C105.2 153.6 106.7 152.8 108 152.1C108.5 151.8 109 151.6 109.4 151.4C114.7 154 119.1 154.7 122.3 154.8C125.4 154.9 127.3 154.3 127.3 154.3C120.8 150.9 115.4 150.3 112.1 150.5C118.3 149.8 123.4 147.4 127 145.2C131 143.3 133.1 141.2 133.1 141.2Z" fill="url(#paint15_linear_1076_2415)"/>
<path d="M108.3 184.2C108.3 184.2 106.5 183.4 103.6 182.5C100.7 181.5 96.4997 180.4 91.7997 179.7C89.3997 179.3 86.8997 179.1 84.2997 179C81.6997 178.9 78.9997 179.1 76.3997 179.5C71.0997 180.2 65.8997 182.1 61.6997 185.2C61.6997 185.2 62.8997 185.9 65.0997 186.8C67.3997 187.7 70.4997 188.6 74.5997 189.1C76.5997 189.4 78.8997 189.6 81.1997 189.6C83.5997 189.7 86.1997 189.6 88.9997 189.2C94.6997 188.6 101 187.1 108.3 184.2Z" fill="#2C4649"/>
<path d="M-91.6001 112.4C-89.4001 114 -87.3001 115.3 -85.3001 116.4C-83.3001 117.5 -81.5001 118.2 -79.8001 119C-76.4001 120.5 -73.5001 121.2 -71.2001 121.5C-74.8001 121.7 -78.2001 122.9 -80.5001 124.1C-81.7001 124.7 -82.6001 125.3 -83.3001 125.7C-84.0001 126.2 -84.3001 126.5 -84.3001 126.5C-80.2001 127.1 -76.5001 126.6 -73.5001 125.6C-70.5001 124.7 -68.3001 123.5 -67.1001 122.8C-66.5001 123.1 -65.8001 123.5 -65.0001 123.9C-63.5001 124.7 -61.5001 125.5 -59.5001 126.8C-57.4001 128 -55.1001 129.4 -52.5001 130.8C-55.5001 129.8 -58.8001 129.3 -62.2001 129.3C-65.6001 129.4 -69.0001 130 -71.8001 130.6C-74.7001 131.2 -77.2001 132.3 -78.9001 133C-80.6001 133.7 -81.6001 134.3 -81.6001 134.3C-80.4001 134.5 -79.3001 134.7 -78.2001 134.9C-77.1001 135.1 -76.0001 135.1 -74.9001 135.4C-72.8001 135.7 -70.7001 135.9 -68.8001 136C-67.8001 136 -66.9001 136.1 -65.9001 136C-65.0001 136.1 -64.1001 136.1 -63.2001 136.1C-61.5001 136.1 -59.8001 136 -58.3001 135.9C-56.8001 135.8 -55.4001 135.6 -54.2001 135.4C-53.0001 135.3 -51.9001 135.1 -51.0001 134.9C-49.2001 134.5 -48.0001 134.2 -47.6001 134C-45.8001 135.2 -43.8001 136.4 -41.9001 137.8C-40.0001 139.2 -38.1001 140.7 -36.0001 142.2C-34.8001 143 -33.7001 143.9 -32.6001 144.8C-34.6001 143.8 -36.7001 143.1 -38.9001 142.5C-41.0001 141.9 -43.2001 141.5 -45.3001 141.1C-49.6001 140.6 -53.7001 140.7 -57.2001 140.9C-64.3001 141.8 -68.9001 143.5 -68.9001 143.5C-66.3001 145 -63.7001 146.1 -61.3001 147C-58.9001 148 -56.7001 148.8 -54.5001 149.3C-53.4001 149.6 -52.3001 149.8 -51.3001 149.9C-50.3001 150.1 -49.3001 150.3 -48.3001 150.4C-46.4001 150.6 -44.5001 150.7 -42.8001 150.6C-39.3001 150.4 -36.4001 150 -34.1001 149.3C-31.8001 148.7 -30.1001 147.9 -29.3001 147.4C-28.6001 148 -27.9001 148.5 -27.2001 149.1C-24.2001 151.5 -21.4001 154.2 -18.4001 156.6C-17.2001 157.7 -16.0001 158.8 -14.9001 159.9C-24.6001 155.7 -35.0001 156.7 -42.4001 158.6C-44.3001 159.1 -45.9001 159.6 -47.4001 160.2C-48.9001 160.8 -50.2001 161.4 -51.3001 161.9C-53.4001 162.9 -54.6001 163.6 -54.6001 163.6C-41.4001 165.5 -31.3001 166.5 -24.4001 166C-17.6001 165.6 -13.4001 164.2 -11.5001 163.3C-11.0001 163.8 -10.6001 164.3 -10.1001 164.7C-8.80009 166.1 -7.40009 167.4 -6.2001 168.8C-4.90009 170.2 -3.6001 171.5 -2.4001 172.8C-1.8001 173.4 -1.2001 174.1 -0.600098 174.7C-9.80009 169.9 -21.6001 169.9 -30.1001 172.5C-31.2001 172.8 -32.2001 173.1 -33.2001 173.4C-34.2001 173.7 -35.2001 174 -36.1001 174.4C-38.0001 175 -39.6001 175.7 -40.9001 176.3C-43.6001 177.5 -45.2001 178.3 -45.2001 178.3C-43.6001 178.5 -42.1001 178.7 -40.5001 178.9C-39.7001 179 -39.0001 179.1 -38.2001 179.1C-37.5001 179.1 -36.8001 179.2 -36.2001 179.2C-34.8001 179.3 -33.5001 179.3 -32.2001 179.4C-31.5001 179.4 -30.9001 179.4 -30.2001 179.5C-29.5001 179.6 -28.9001 179.6 -28.2001 179.7C-25.6001 180 -23.1001 180.1 -20.6001 180.2C-18.2001 180.4 -15.9001 180.5 -13.7001 180.6C-5.1001 180.9 1.0999 180 3.8999 179.4C4.19991 179.8 4.5999 180.1 4.8999 180.5C7.19991 182.9 9.2999 185.3 11.3999 187.3C11.6999 187.6 11.8999 187.8 12.1999 188.1C7.89989 187.2 2.5999 186.9 -2.9001 187.1C-8.5001 187.3 -14.1001 188 -19.3001 188.9C-24.4001 189.9 -28.9001 191.1 -32.2001 192C-33.8001 192.4 -35.1001 192.9 -36.0001 193.2C-36.9001 193.5 -37.4001 193.7 -37.4001 193.7C-35.8001 193.9 -34.2001 194.3 -32.6001 194.5C-31.0001 194.8 -29.4001 195 -27.9001 195.2C-24.8001 195.6 -21.7001 196 -18.8001 196.2C-15.9001 196.3 -13.1001 196.5 -10.5001 196.4C-7.9001 196.3 -5.5001 196.1 -3.3001 195.8C5.6999 194.5 11.4999 191.5 13.9999 190C15.4999 191.4 17.8999 185.8 18.3999 182.9C18.8999 179.9 19.3999 176.2 19.5999 171.4C19.7999 166.7 19.4999 161 18.2999 154.2C17.9999 152.5 17.4999 150.7 17.0999 148.8C16.8999 147.9 16.5999 146.9 16.2999 145.9C15.9999 144.9 15.5999 143.9 15.2999 142.9C14.4999 140.8 13.7999 138.7 12.7999 136.5C11.6999 134.2 10.3999 131.8 8.9999 129.4C8.9999 129.4 8.8999 131.9 8.8999 135.8C8.8999 136.8 8.8999 137.9 8.8999 139C8.8999 140.2 8.8999 141.4 8.8999 142.7C8.7999 145.2 8.69991 148 8.7999 151C8.69991 162.7 8.6999 176.4 14.5999 186.9C14.1999 186.5 13.7999 186.1 13.2999 185.7C11.1999 183.8 9.09991 181.4 6.7999 179C4.4999 176.6 2.0999 174 -0.400101 171.4C-0.800102 171 -1.2001 170.6 -1.6001 170.1C-1.30009 169.4 -0.500099 167.7 0.299904 165C1.09991 162.4 1.8999 158.9 2.0999 154.6C2.1999 152.5 2.1999 150.2 1.9999 147.7C1.6999 145.2 1.0999 142.5 0.199898 139.6C-9.91821e-05 138.9 -0.300102 138.2 -0.500099 137.4C-0.700096 136.7 -1.0001 136 -1.2001 135.3C-1.7001 133.9 -2.3001 132.5 -3.0001 131.1C-4.4001 128.3 -5.9001 125.3 -8.1001 122.5C-8.1001 122.5 -8.2001 124.6 -8.2001 127.9C-8.30009 131.3 -8.30009 135.8 -8.1001 140.7C-7.9001 145.4 -7.5001 151.1 -6.8001 155.8C-6.5001 158.2 -6.1001 160.5 -5.5001 162.6C-4.9001 164.7 -4.2001 166.6 -3.3001 168.2C-3.60011 167.9 -3.90009 167.6 -4.2001 167.2C-5.40009 165.8 -6.80009 164.4 -8.2001 163.1C-10.8001 160.3 -13.8001 157.6 -16.7001 155C-19.8001 152.6 -22.7001 149.9 -25.7001 147.5C-27.9001 145.8 -30.0001 144.1 -32.2001 142.4C-32.0001 141.8 -31.6001 140.3 -31.4001 138.1C-31.3001 135.9 -31.4001 133 -32.3001 129.6C-32.8001 127.9 -33.5001 126 -34.4001 124C-35.4001 122.1 -36.7001 120 -38.4001 117.9C-40.1001 115.8 -42.1001 113.5 -44.7001 111.5C-46.0001 110.4 -47.4001 109.4 -48.9001 108.3C-50.4001 107.2 -52.0001 106.1 -53.9001 105.2C-53.9001 105.2 -53.7001 105.6 -53.3001 106.3C-52.9001 107 -52.4001 108 -51.8001 109.2C-50.5001 111.7 -48.8001 115.2 -46.8001 118.9C-44.8001 122.7 -42.8001 127 -40.5001 130.8C-38.3001 134.8 -36.0001 138.6 -33.3001 141.5C-33.8001 141.1 -34.3001 140.8 -34.8001 140.4C-37.7001 138.3 -40.5001 136.2 -43.3001 134.3C-46.1001 132.5 -48.8001 130.8 -51.2001 129.2C-51.6001 124.1 -53.0001 120 -54.8001 116.6C-55.2001 115.8 -55.7001 114.9 -56.2001 114.2C-56.7001 113.5 -57.2001 112.8 -57.8001 112.2C-58.9001 111 -60.0001 109.9 -61.0001 109C-63.2001 107.2 -65.1001 106 -66.7001 105.5C-68.2001 104.9 -69.2001 104.7 -69.2001 104.7C-68.3001 106.3 -67.5001 107.8 -66.7001 109.2C-65.9001 110.7 -65.1001 112.1 -64.4001 113.3C-62.9001 115.9 -61.4001 118.1 -60.0001 119.9C-57.3001 123.7 -55.0001 126.5 -53.4001 128C-55.6001 126.7 -57.7001 125.6 -59.5001 124.6C-61.3001 123.5 -63.0001 122.9 -64.4001 122.1C-64.9001 121.8 -65.4001 121.6 -65.9001 121.4C-66.6001 118.5 -67.7001 116 -68.9001 113.9C-70.2001 111.9 -71.6001 110.3 -72.8001 109.1C-75.4001 106.6 -77.5001 105.6 -77.5001 105.6C-75.9001 109.3 -74.3001 112.2 -72.7001 114.5C-71.1001 116.8 -69.6001 118.4 -68.4001 119.8C-69.0001 119.2 -69.6001 118.7 -70.3001 118.2C-71.0001 117.7 -71.6001 117.3 -72.3001 116.9C-73.6001 116.1 -75.0001 115.4 -76.3001 114.8C-77.6001 114.2 -79.0001 113.7 -80.2001 113.3C-81.5001 113 -82.7001 112.8 -83.9001 112.6C-88.4001 112.2 -91.6001 112.4 -91.6001 112.4Z" fill="url(#paint16_linear_1076_2415)"/>
<path d="M31.2997 273.9H28.2997C28.2997 273.8 29.8997 228 23.1997 210.4C16.4997 192.8 8.79971 185.3 8.69971 185.2L10.8997 182.9C11.1997 183.2 19.1997 191 26.0997 209.3C33.2997 227.9 31.4997 273.4 31.2997 273.9Z" fill="#062F26"/>
<path d="M23.6997 247.3C23.6997 247.3 21.9997 216.8 7.19971 206.6C7.19971 206.6 14.6997 232 20.9997 243.3C20.9997 243.3 11.0997 226.1 7.79971 222.4C9.59971 233.4 15.8997 239 23.6997 247.3Z" fill="#1C463C"/>
<path d="M4.29971 273.9C2.29971 278.1 1.19971 282.8 1.19971 287.8C1.19971 305.5 15.5997 319.9 33.2997 319.9C50.9997 319.9 65.3997 305.5 65.3997 287.8C65.3997 282.8 64.2997 278.1 62.2997 273.9H4.29971Z" fill="url(#paint17_linear_1076_2415)"/>
<path d="M159 346.2L193 335.5C195.9 334.5 197.5 332.7 198.4 329.6L208.6 288.7C209.8 283.9 212.7 281.4 217.5 281.2H233L225.1 325.2L197.7 349.5H181H168.3L159 346.2Z" fill="url(#paint18_linear_1076_2415)"/>
<path d="M480.7 289.2C479.2 284 475.5 281.2 469.8 281.2H232.5C226.8 281.2 223.1 284.1 221.6 289.2L209.4 340.6L232.3 368.6H469.6L492.8 340.6L480.7 289.2Z" fill="url(#paint19_linear_1076_2415)"/>
<path d="M-30.7999 134.9H-72.3999H-89.5999H-131.2L-166.4 225H-89.5999H-72.3999H4.50009L-30.7999 134.9Z" fill="url(#paint20_linear_1076_2415)"/>
</g>
<defs>
<linearGradient id="paint0_linear_1076_2415" x1="294.425" y1="-170.807" x2="294.425" y2="504.45" gradientUnits="userSpaceOnUse">
<stop stop-color="#FDF2EF"/>
<stop offset="1" stop-color="#FDD0BF"/>
</linearGradient>
<linearGradient id="paint1_linear_1076_2415" x1="-477.916" y1="165.699" x2="1064.66" y2="165.699" gradientUnits="userSpaceOnUse">
<stop stop-color="#F9F9F9" stop-opacity="0"/>
<stop offset="0.48" stop-color="#FAE0D6"/>
<stop offset="0.56" stop-color="#FAE0D6" stop-opacity="0.99"/>
<stop offset="0.62" stop-color="#FAE1D5" stop-opacity="0.94"/>
<stop offset="0.69" stop-color="#FAE3D9" stop-opacity="0.87"/>
<stop offset="0.75" stop-color="#F9E5DD" stop-opacity="0.77"/>
<stop offset="0.81" stop-color="#FAE8E1" stop-opacity="0.65"/>
<stop offset="0.87" stop-color="#F9ECE7" stop-opacity="0.49"/>
<stop offset="0.92" stop-color="#FAF1EE" stop-opacity="0.3"/>
<stop offset="0.98" stop-color="#F8F6F5" stop-opacity="0.09"/>
<stop offset="1" stop-color="#F9F9F9" stop-opacity="0"/>
</linearGradient>
<linearGradient id="paint2_linear_1076_2415" x1="0.551624" y1="131.181" x2="-360.522" y2="215.028" gradientUnits="userSpaceOnUse">
<stop offset="0.18" stop-color="#FBCEC0" stop-opacity="0"/>
<stop offset="1" stop-color="#FBCEC0"/>
</linearGradient>
<linearGradient id="paint3_linear_1076_2415" x1="401.701" y1="166.179" x2="658.728" y2="187.764" gradientUnits="userSpaceOnUse">
<stop stop-color="#F9F9F9" stop-opacity="0"/>
<stop offset="0.09" stop-color="#F9F9F9" stop-opacity="0.05"/>
<stop offset="0.26" stop-color="#F9F9F9" stop-opacity="0.19"/>
<stop offset="0.49" stop-color="#F9F9F9" stop-opacity="0.41"/>
<stop offset="0.76" stop-color="#F9F9F9" stop-opacity="0.71"/>
<stop offset="1" stop-color="#F9F9F9"/>
</linearGradient>
<linearGradient id="paint4_linear_1076_2415" x1="-10.615" y1="148.55" x2="121.335" y2="21.3091" gradientUnits="userSpaceOnUse">
<stop stop-color="#F9F9F9" stop-opacity="0"/>
<stop offset="0.13" stop-color="#F9F4F2" stop-opacity="0.11"/>
<stop offset="0.42" stop-color="#F9E7E2" stop-opacity="0.38"/>
<stop offset="0.84" stop-color="#FAD4C9" stop-opacity="0.82"/>
<stop offset="1" stop-color="#FCCCBF"/>
</linearGradient>
<linearGradient id="paint5_linear_1076_2415" x1="402.125" y1="151.672" x2="643.118" y2="7.07192" gradientUnits="userSpaceOnUse">
<stop offset="0.13" stop-color="#F9F9F9" stop-opacity="0"/>
<stop offset="0.25" stop-color="#F9F4F2" stop-opacity="0.11"/>
<stop offset="0.5" stop-color="#F9E7E2" stop-opacity="0.38"/>
<stop offset="0.86" stop-color="#FAD4C9" stop-opacity="0.82"/>
<stop offset="1" stop-color="#FCCCBF"/>
</linearGradient>
<linearGradient id="paint6_linear_1076_2415" x1="203.711" y1="160.298" x2="482.948" y2="99.9576" gradientUnits="userSpaceOnUse">
<stop stop-color="#F9F9F9" stop-opacity="0"/>
<stop offset="0.09" stop-color="#F9F9F9" stop-opacity="0.05"/>
<stop offset="0.26" stop-color="#F9F9F9" stop-opacity="0.19"/>
<stop offset="0.49" stop-color="#F9F9F9" stop-opacity="0.41"/>
<stop offset="0.76" stop-color="#F9F9F9" stop-opacity="0.71"/>
<stop offset="1" stop-color="#F9F9F9"/>
</linearGradient>
<linearGradient id="paint7_linear_1076_2415" x1="-71.9713" y1="289.404" x2="-286.73" y2="164.008" gradientUnits="userSpaceOnUse">
<stop stop-color="#FCCCBF"/>
<stop offset="0.15" stop-color="#FAD4C9" stop-opacity="0.82"/>
<stop offset="0.54" stop-color="#F9E7E2" stop-opacity="0.38"/>
<stop offset="0.8" stop-color="#F9F4F2" stop-opacity="0.11"/>
<stop offset="0.92" stop-color="#F9F9F9" stop-opacity="0"/>
</linearGradient>
<linearGradient id="paint8_linear_1076_2415" x1="270.768" y1="160.839" x2="270.768" y2="137.263" gradientUnits="userSpaceOnUse">
<stop stop-color="#63635D"/>
<stop offset="0.2562" stop-color="#656566"/>
<stop offset="0.3774" stop-color="#7B7E82"/>
<stop offset="0.5431" stop-color="#9499A1"/>
<stop offset="0.7046" stop-color="#A6ADB7"/>
<stop offset="0.8584" stop-color="#B0B9C4"/>
<stop offset="0.996" stop-color="#B4BDC9"/>
</linearGradient>
<linearGradient id="paint9_linear_1076_2415" x1="195.977" y1="13.3758" x2="216.898" y2="115.402" gradientUnits="userSpaceOnUse">
<stop stop-color="#9D9D9C"/>
<stop offset="0.9901" stop-color="#ACACAD"/>
</linearGradient>
<linearGradient id="paint10_linear_1076_2415" x1="263.796" y1="21.3698" x2="280.506" y2="102.863" gradientUnits="userSpaceOnUse">
<stop stop-color="#9D9D9C"/>
<stop offset="0.9901" stop-color="#ACACAD"/>
</linearGradient>
<linearGradient id="paint11_linear_1076_2415" x1="163.193" y1="320.114" x2="163.193" y2="285.579" gradientUnits="userSpaceOnUse">
<stop stop-color="#828282"/>
<stop offset="1" stop-color="#404040"/>
</linearGradient>
<linearGradient id="paint12_linear_1076_2415" x1="192.146" y1="244.749" x2="101.326" y2="244.749" gradientUnits="userSpaceOnUse">
<stop stop-color="#9F9F9E" stop-opacity="0.5"/>
<stop offset="0.9901" stop-color="#AEAEAF" stop-opacity="0"/>
</linearGradient>
<linearGradient id="paint13_linear_1076_2415" x1="-114.251" y1="96.0202" x2="20.0398" y2="96.0202" gradientUnits="userSpaceOnUse">
<stop offset="0.0965515" stop-color="#316257"/>
<stop offset="0.997" stop-color="#0D3B3F"/>
</linearGradient>
<linearGradient id="paint14_linear_1076_2415" x1="57.1469" y1="114.233" x2="217.53" y2="114.233" gradientUnits="userSpaceOnUse">
<stop offset="0.00297901" stop-color="#2D484B"/>
<stop offset="0.9976" stop-color="#162829"/>
</linearGradient>
<linearGradient id="paint15_linear_1076_2415" x1="20.3001" y1="188.832" x2="133.1" y2="188.832" gradientUnits="userSpaceOnUse">
<stop stop-color="#1B3233"/>
<stop offset="0.9954" stop-color="#213536"/>
</linearGradient>
<linearGradient id="paint16_linear_1076_2415" x1="-91.5501" y1="150.661" x2="19.5583" y2="150.661" gradientUnits="userSpaceOnUse">
<stop offset="0.3542" stop-color="#0D474B"/>
<stop offset="1" stop-color="#1B2F2A"/>
</linearGradient>
<linearGradient id="paint17_linear_1076_2415" x1="33.248" y1="273.87" x2="33.248" y2="319.817" gradientUnits="userSpaceOnUse">
<stop stop-color="#FF9270"/>
<stop offset="1" stop-color="#CE624F"/>
</linearGradient>
<linearGradient id="paint18_linear_1076_2415" x1="195.997" y1="349.489" x2="195.997" y2="281.17" gradientUnits="userSpaceOnUse">
<stop stop-color="#005467"/>
<stop offset="0.9966" stop-color="#418391"/>
</linearGradient>
<linearGradient id="paint19_linear_1076_2415" x1="351.101" y1="368.613" x2="351.101" y2="281.17" gradientUnits="userSpaceOnUse">
<stop stop-color="#005467"/>
<stop offset="0.9966" stop-color="#418391"/>
</linearGradient>
<linearGradient id="paint20_linear_1076_2415" x1="-166.421" y1="179.949" x2="4.45319" y2="179.949" gradientUnits="userSpaceOnUse">
<stop offset="0.00394759" stop-color="#666666"/>
<stop offset="0.0967727" stop-color="#5F5F5F"/>
<stop offset="1" stop-color="#1E1D1D"/>
</linearGradient>
</defs>
</svg>
