<svg width="15" height="16" viewBox="0 0 15 16" fill="none" xmlns="http://www.w3.org/2000/svg">
<path d="M1.25 3.25H13.75" stroke="#6C6972" stroke-width="1.5" stroke-linecap="round" stroke-linejoin="round"/>
<path d="M5.25 3.25V1.75C5.25 1.48478 5.35536 1.23043 5.54289 1.04289C5.73043 0.855357 5.98478 0.75 6.25 0.75H8.75C9.01522 0.75 9.26957 0.855357 9.45711 1.04289C9.64464 1.23043 9.75 1.48478 9.75 1.75V3.25" stroke="#6C6972" stroke-width="1.5" stroke-linecap="round" stroke-linejoin="round"/>
<path d="M12 5.75L11.6 13.36C11.5718 13.8711 11.3488 14.352 10.9767 14.7036C10.6046 15.0552 10.1119 15.2508 9.6 15.25H5.4C4.88809 15.2508 4.39536 15.0552 4.0233 14.7036C3.65123 14.352 3.42815 13.8711 3.4 13.36L3 5.75" stroke="#6C6972" stroke-width="1.5" stroke-linecap="round" stroke-linejoin="round"/>
</svg>
