<svg width="80" height="80" viewBox="0 0 80 80" fill="none" xmlns="http://www.w3.org/2000/svg">
<circle cx="40" cy="40" r="39.5" stroke="#3B3B47"/>
<path d="M34 58H29.6364C25.4167 58 22 55.9016 22 52.0945V50" stroke="#3B3B47" stroke-linecap="round" stroke-linejoin="round"/>
<rect width="7" height="4" rx="2" transform="matrix(-1 0 0 1 41 56)" stroke="#3B3B47"/>
<path d="M18 43C15.792 43 14 41.21 14 39C14 36.792 15.792 35 18 35" stroke="#3B3B47" stroke-linecap="round" stroke-linejoin="round"/>
<path fill-rule="evenodd" clip-rule="evenodd" d="M28 50H23C20.24 50 18 48.1205 18 45.8V33.2C18 30.8816 20.24 29 23 29H28V50V50Z" stroke="#3B3B47" stroke-linecap="round" stroke-linejoin="round"/>
<path d="M54 20.5209C50.9387 16.5829 45.804 14 39.9861 14C30.6074 14 23 20.7157 23 29" stroke="#3B3B47" stroke-linejoin="round"/>
<path fill-rule="evenodd" clip-rule="evenodd" d="M70 33.8062C70 40.8788 62.8376 46.6111 54 46.6111C52.0271 46.6111 50.1391 46.3259 48.3944 45.8031L39.1993 50L42.8 42.9506C39.8365 40.625 38 37.3876 38 33.8062C38 26.7323 45.1624 21 54 21C62.8376 21 70 26.7323 70 33.8062V33.8062Z" stroke="#3B3B47" stroke-linejoin="round"/>
<path fill-rule="evenodd" clip-rule="evenodd" d="M61 30C61 30.5527 60.5513 31 60 31C59.448 31 59 30.5527 59 30C59 29.448 59.448 29 60 29C60.5513 29 61 29.448 61 30V30Z" stroke="#3B3B47" stroke-linejoin="round"/>
<path fill-rule="evenodd" clip-rule="evenodd" d="M63.1776 30C63.1776 29.752 63.1439 29.512 63.0885 29.28L63.9927 28.7698L63.0839 27.2302L62.2115 27.7413C61.8544 27.4107 61.4236 27.1618 60.9692 27.0196V26H59.1517V27.0204C58.6973 27.1618 58.2029 27.4107 57.8466 27.7413L56.9242 27.2302L56.0073 28.7698L56.9088 29.28C56.8515 29.512 56.8179 29.752 56.8179 30C56.8179 30.248 56.8488 30.488 56.9061 30.72L56 31.2302L56.9088 32.7698L57.8457 32.2587C58.202 32.5893 58.6973 32.84 59.1517 32.9804V34H60.9692V32.9804C61.4236 32.84 61.8544 32.5893 62.2124 32.2587L63.0994 32.7698L64 31.2302L63.0921 30.72C63.1485 30.4889 63.1776 30.248 63.1776 30V30Z" stroke="#3B3B47" stroke-linejoin="round"/>
<path fill-rule="evenodd" clip-rule="evenodd" d="M54.7067 39.3492L56 37.1508L54.7067 36.4189C54.8403 35.8215 54.8498 35.2208 54.7058 34.5819L56 33.8492L54.7067 31.6508L53.4617 32.3853C53.0021 31.9732 52.327 31.6508 51.8959 31.4638V30H49.3093V31.4638C48.4471 31.6525 48.1005 31.9732 47.6418 32.3862L46.3183 31.6508L45.0129 33.8492L46.2993 34.5819C46.1657 35.1751 46.1519 35.775 46.2959 36.4189L45 37.1508L46.2933 39.3492L47.6409 38.6147C48.1005 39.0285 48.4471 39.3492 49.3093 39.537V41H51.8959V39.537C52.327 39.3492 53.0021 39.0285 53.4634 38.6147L54.7067 39.3492Z" stroke="#3B3B47" stroke-linejoin="round"/>
<path fill-rule="evenodd" clip-rule="evenodd" d="M52 35.5C52 36.328 51.3288 37 50.5 37C49.672 37 49 36.328 49 35.5C49 34.672 49.672 34 50.5 34C51.3288 34 52 34.672 52 35.5V35.5Z" stroke="#3B3B47" stroke-linejoin="round"/>
</svg>
